<svg version="1" xmlns="http://www.w3.org/2000/svg" width="666.667" height="666.667" viewBox="0 0 500.000000 500.000000"><path d="M91.9 5.5c-.3.2-2 .7-3.9 1-19.3 3.2-37.8 12.8-52.4 26.8C20.9 47.6 12.3 63.1 6.9 85c-1.2 4.5-1.4 33.6-1.4 163 0 86.6.3 159.5.7 162 1.9 11.7 4.4 19.4 9.9 30.3C26.3 460.7 45.3 478.5 66 487c20.3 8.4 10.2 7.9 186.5 7.7 85.8-.2 157.4-.6 159.1-.9 23.6-4.9 40-13.8 55.7-30.1 11.7-12.2 19.6-26.2 24.4-43.4l2.8-9.8.3-155.5c.2-110.4 0-157.8-.8-163.5-4.5-32.3-23.4-59.1-53.1-75.2-5.8-3.2-18.1-7.8-23.4-8.7-1.6-.3-4.1-.9-5.5-1.3-2.6-.8-319.4-1.6-320.1-.8z"/></svg>