<?xml version="1.0" encoding="UTF-8" standalone="no"?>
<svg xmlns:dc="http://purl.org/dc/elements/1.1/" xmlns:cc="http://creativecommons.org/ns#" xmlns:rdf="http://www.w3.org/1999/02/22-rdf-syntax-ns#" xmlns:svg="http://www.w3.org/2000/svg" xmlns="http://www.w3.org/2000/svg" xmlns:sodipodi="http://sodipodi.sourceforge.net/DTD/sodipodi-0.dtd" xmlns:inkscape="http://www.inkscape.org/namespaces/inkscape" width="32" height="32" viewBox="0 0 32 32.000001" id="svg2" version="1.1" inkscape:version="0.91 r13725" sodipodi:docname="organic-food-hanger-board-vegetable-market.svg">
  <defs id="defs4">
    <inkscape:path-effect effect="fillet-chamfer" id="path-effect25375-5-3-9" is_visible="true" fillet_chamfer_values="0,0 | -0.75000045,1 | -0.75,1" method="auto" radius="0.75" chamfer_steps="1" helper_size="0" flexible="false" use_knot_distance="false" ignore_radius_0="false" only_selected="true" hide_knots="false"/>
    <inkscape:path-effect effect="fillet-chamfer" id="path-effect20967-7-6-4" is_visible="true" fillet_chamfer_values="0,0 | -0.50127826,1" method="auto" radius="2" chamfer_steps="1" helper_size="0" flexible="false" use_knot_distance="false" ignore_radius_0="false" only_selected="true" hide_knots="false"/>
    <clipPath id="clipPath32617-9-8-8-9-8-9-2-44-8-4-0-3-0-1" clipPathUnits="userSpaceOnUse">
      <circle transform="matrix(9.3443438,0,0,9.3443438,-627.91229,-5859.5225)" id="path32619-2-3-5-1-0-4-6-0-8-3-6-5-0-9" style="fill:#4bb7c0;fill-opacity:1;stroke:none" cx="-64.623535" cy="50.047192" r="38.553814"/>
    </clipPath>
    <clipPath id="clipPath32617-9-8-8-9-8-9-2-4-1-6-0-9-4-2-3" clipPathUnits="userSpaceOnUse">
      <circle transform="matrix(9.3443438,0,0,9.3443438,-627.91229,-5859.5225)" id="path32619-2-3-5-1-0-4-6-5-0-2-7-8-4-1-8" style="fill:#4bb7c0;fill-opacity:1;stroke:none" cx="-64.623535" cy="50.047192" r="38.553814"/>
    </clipPath>
  </defs>
  <sodipodi:namedview id="base" pagecolor="#ffffff" bordercolor="#666666" borderopacity="1.0" inkscape:pageopacity="0.0" inkscape:pageshadow="2" inkscape:zoom="8" inkscape:cx="-10.014068" inkscape:cy="8.0396646" inkscape:document-units="px" inkscape:current-layer="layer1" showgrid="false" units="px" inkscape:window-width="1366" inkscape:window-height="716" inkscape:window-x="-8" inkscape:window-y="-8" inkscape:window-maximized="1" showguides="true" inkscape:guide-bbox="true"/>
  
  <g inkscape:label="Layer 1" inkscape:groupmode="layer" id="layer1" transform="translate(0,-1020.3622)">
    <g style="fill:#e3e3e3;fill-opacity:1" id="g32635" transform="translate(-7.4868332e-4,0.75030978)">
      <path inkscape:connector-curvature="0" id="path32625" transform="translate(-1466.179,827.56404)" d="m 1482.1797,197.29688 c -1.0987,0 -2,0.9014 -2,2 0,0.16734 0.027,0.32866 0.066,0.48437 l -6.3379,7.01758 1.3477,0 5.5058,-6.09571 c 0.3631,0.36608 0.8657,0.59376 1.418,0.59376 0.5523,0 1.0548,-0.22767 1.418,-0.59376 l 5.5058,6.09571 1.3477,0 -6.3379,-7.01758 c 0.039,-0.15571 0.066,-0.31703 0.066,-0.48437 0,-1.0986 -0.9014,-2 -2,-2 z m 0,1 c 0.5582,0 1,0.4418 1,1 0,0.55818 -0.4418,1 -1,1 -0.5582,0 -1,-0.44182 -1,-1 0,-0.5582 0.4418,-1 1,-1 z" style="color:#000000;font-style:normal;font-variant:normal;font-weight:normal;font-stretch:normal;font-size:medium;line-height:normal;font-family:sans-serif;text-indent:0;text-align:start;text-decoration:none;text-decoration-line:none;text-decoration-style:solid;text-decoration-color:#000000;letter-spacing:normal;word-spacing:normal;text-transform:none;direction:ltr;writing-mode:lr-tb;baseline-shift:baseline;text-anchor:start;white-space:normal;clip-rule:nonzero;display:inline;overflow:visible;visibility:visible;opacity:1;isolation:auto;mix-blend-mode:normal;color-interpolation:sRGB;color-interpolation-filters:linearRGB;solid-color:#000000;solid-opacity:1;fill:#e3e3e3;fill-opacity:1;fill-rule:nonzero;stroke:none;stroke-width:1;stroke-linecap:round;stroke-linejoin:round;stroke-miterlimit:4;stroke-dasharray:none;stroke-dashoffset:0;stroke-opacity:1;color-rendering:auto;image-rendering:auto;shape-rendering:auto;text-rendering:auto;enable-background:accumulate"/>
      <g style="fill:#e3e3e3;fill-opacity:1" transform="translate(1.0000025,-0.99990107)" id="g32633">
        <g id="g32627" transform="matrix(1,0,0,0.99983471,2.7464398,0.17278638)" style="fill:#e3e3e3;fill-opacity:1;stroke-width:1.00008261"/>
        <g id="g32629" transform="matrix(0.99702489,0,0,0.99947628,-0.63213957,0.5467704)" style="fill:#e3e3e3;fill-opacity:1;stroke-width:1.00175333"/>
        <g transform="matrix(0.99958391,0,0,0.9982898,-7.7463614,1.7877746)" id="g32631" style="fill:#e3e3e3;fill-opacity:1;stroke-width:1.00106454"/>
      </g>
    </g>
    <path inkscape:connector-curvature="0" id="path32639" d="m 3,1036.1132 c -0.831,0 -1.5,0.669 -1.5,1.5 l 0,8 c 0,0.831 0.669,1.5 1.5,1.5 l 26,0 c 0.831,0 1.5,-0.669 1.5,-1.5 l 0,-8 c 0,-0.831 -0.669,-1.5 -1.5,-1.5 z m 19.25,3.2285 a 0.5000499,0.5000499 0 0 1 0.5019,0.5117 l 0,3.4844 a 0.5000499,0.5000499 0 0 1 -0.9316,0.2519 l -1.0703,-1.8691 0,1.6172 a 0.5000499,0.5000499 0 1 1 -0.9961,0 l 0,-3.4844 a 0.5000499,0.5000499 0 0 1 0.9297,-0.25 l 1.0703,1.8672 0,-1.6172 a 0.5000499,0.5000499 0 0 1 0.4434,-0.5097 0.5000499,0.5000499 0 0 1 0.053,-0 z m 2,0 a 0.5000499,0.5000499 0 0 1 0.5019,0.5117 l 0,3.4844 a 0.5000499,0.5000499 0 1 1 -0.9961,0 l 0,-3.4844 a 0.5000499,0.5000499 0 0 1 0.4415,-0.5097 0.5000499,0.5000499 0 0 1 0.053,-0 z m -17.9981,0 a 0.5000499,0.5000499 0 0 1 0.502,0.5019 l -0.01,3.5 a 0.5000499,0.5000499 0 0 1 -0.5019,0.4942 l -1.9942,0.01 a 0.5000499,0.5000499 0 0 1 -0.5019,-0.502 l 0,-3.498 a 0.5000499,0.5000499 0 0 1 0.5019,-0.4961 z m 1.9551,0 0,0 a 0.5000499,0.5000499 0 0 1 0.049,0 l 1.9785,0 a 0.5000499,0.5000499 0 0 1 0.502,0.4961 l 0.016,1.498 a 0.50197327,0.50197327 0 0 1 -0.4844,0.5059 0.50004998,0.50004998 0 0 1 0.4844,0.5059 l 0,0.9882 a 0.50195906,0.50195906 0 0 1 -1.0039,0 l 0,-0.9882 a 0.50004998,0.50004998 0 0 1 0,-0.01 l -0.9961,0 0,0.9961 a 0.50197795,0.50197795 0 1 1 -1.0039,0 l 0.01,-3.4922 a 0.5000499,0.5000499 0 0 1 0.4492,-0.502 z m 3.9961,0 0,0 a 0.50083744,0.50083744 0 0 1 0.051,0 l 1.9941,0 a 0.50195906,0.50195906 0 0 1 0,1.0039 l -1.4922,0 0,2.4941 0.9961,0 0,-0.4941 a 0.50197795,0.50197795 0 1 1 0,-1.0039 l 0.502,0 a 0.50083744,0.50083744 0 0 1 0.5019,0.5019 l 0,1.4981 a 0.50083744,0.50083744 0 0 1 -0.5019,0.5019 l -2,-0.01 a 0.50083744,0.50083744 0 0 1 -0.502,-0.5019 l 0,-3.4922 a 0.50083744,0.50083744 0 0 1 0.4512,-0.5019 z m 4.0059,0 a 0.5000499,0.5000499 0 0 1 0.049,0 l 1.9941,0 a 0.5000499,0.5000499 0 0 1 0.4941,0.5019 l 0,3.4844 a 0.5000499,0.5000499 0 1 1 -0.9961,0 l 0,-0.9883 -1.0019,0 0,0.9961 a 0.5000499,0.5000499 0 1 1 -0.9961,0 l 0.01,-3.4922 a 0.5000499,0.5000499 0 0 1 0.4492,-0.5019 z m 9.998,0 a 0.5000499,0.5000499 0 0 1 0.043,0 l 1.498,0 a 0.50195906,0.50195906 0 0 1 0,1.0039 l -0.9961,0 0,2.4961 0.9903,0 a 0.50195906,0.50195906 0 0 1 0,1.0039 l -1.4922,0 a 0.5000499,0.5000499 0 0 1 -0.4942,-0.502 l 0,-3.5 a 0.5000499,0.5000499 0 0 1 0.4512,-0.5019 z m -21.4531,1.0039 0,2.4961 0.9903,0 0.01,-2.4961 z m 4.0019,0 0,0.998 0.9961,0 -0.01,-0.998 z m 8.002,0 0,0.998 0.9981,0 0,-0.998 z" style="opacity:1;fill:#e3e3e3;fill-opacity:1;stroke:none;stroke-width:0.99999994;stroke-linecap:round;stroke-linejoin:round;stroke-miterlimit:4;stroke-dasharray:none;stroke-opacity:1"/>
  </g>

	<metadata>
		<rdf:RDF xmlns:rdf="http://www.w3.org/1999/02/22-rdf-syntax-ns#" xmlns:rdfs="http://www.w3.org/2000/01/rdf-schema#" xmlns:dc="http://purl.org/dc/elements/1.1/">
			<rdf:Description about="https://iconscout.com/legal#licenses" dc:title="organic-food-hanger-board-vegetable-market" dc:description="organic-food-hanger-board-vegetable-market" dc:publisher="Iconscout" dc:date="2017-06-27" dc:format="image/svg+xml" dc:language="en">
				<dc:creator>
					<rdf:Bag>
						<rdf:li>Vignesh Oviyan</rdf:li>
					</rdf:Bag>
				</dc:creator>
			</rdf:Description>
		</rdf:RDF>
    </metadata></svg>
