<?xml version="1.0" encoding="UTF-8"?><svg xmlns="http://www.w3.org/2000/svg" xmlns:xlink="http://www.w3.org/1999/xlink" width="59px" height="60px" viewBox="0 0 59 60" version="1.1"><title>Group</title><g id="Page-1" stroke="none" stroke-width="1" fill="none" fill-rule="evenodd"><g id="Group" transform="translate(2.000000, 2.000000)"><path id="Shape" fill="none" fill-rule="nonzero" d="M.267 26.707H45.86v5.644l-3.375 5.283-3.375 6.25-8.125 2.375-8.625 2.875-8.525-2.626-5.533-3.175-5.317-5.413-2.269-6.853z"/><path d="M46.624 26.707c-.001 11.727-9.508 21.234-21.235 21.234H21.5C9.774 47.94.268 38.434.267 26.707v-8.232h46.357v8.232z" id="Shape" stroke="#e3e3e3" stroke-width="4" stroke-linecap="round" stroke-linejoin="round"/><path d="M.267 55.759h46.357" id="Shape" stroke="#e3e3e3" stroke-width="4" fill="none" fill-rule="nonzero" stroke-linecap="round" stroke-linejoin="round"/><path d="M46.624 22.759h6.884s4.503 13.336-9.072 13.336" id="Shape" stroke="#e3e3e3" stroke-width="4" stroke-linecap="round"/><path d="M6.394 9.69C8.07 3.275 11.912 5.98 12.776 0" id="Shape" stroke="#e3e3e3" stroke-width="4" fill="none" fill-rule="nonzero" stroke-linecap="round" stroke-linejoin="round"/><path d="M20.362 9.69C22.04 3.275 25.881 5.98 26.745 0" id="Shape" stroke="#e3e3e3" stroke-width="4" fill="none" fill-rule="nonzero" stroke-linecap="round" stroke-linejoin="round"/><path d="M34.362 9.69C36.04 3.275 39.881 5.98 40.745 0" id="Shape" stroke="#e3e3e3" stroke-width="4" fill="none" fill-rule="nonzero" stroke-linecap="round" stroke-linejoin="round"/></g></g><metadata><rdf:RDF xmlns:rdf="http://www.w3.org/1999/02/22-rdf-syntax-ns#" xmlns:rdfs="http://www.w3.org/2000/01/rdf-schema#" xmlns:dc="http://purl.org/dc/elements/1.1/"><rdf:Description about="https://iconscout.com/legal#licenses" dc:title="group" dc:description="group" dc:publisher="Iconscout" dc:date="2017-09-15" dc:format="image/svg+xml" dc:language="en"><dc:creator><rdf:Bag><rdf:li>Ghani Pradita</rdf:li></rdf:Bag></dc:creator></rdf:Description></rdf:RDF></metadata></svg>