<?xml version="1.0" encoding="UTF-8"?><svg xmlns="http://www.w3.org/2000/svg" xmlns:xlink="http://www.w3.org/1999/xlink" version="1.1" id="Layer_1" x="0px" y="0px" viewBox="0 0 24 24" xml:space="preserve"><g fill="none" stroke="#e3e3e3" stroke-linecap="round" stroke-linejoin="round" stroke-miterlimit="10"><path id="XMLID_1314_" d="M21.71 2.5c-4.06 0-9.21 2.94-9.21 6.58 0 .818.307 1.626 1.05 2.37.744.743 1.552 1.05 2.37 1.05 3.64 0 6.58-5.15 6.58-9.21a.79.79 0 0 0-.79-.79z"/><path id="XMLID_1313_" d="M19.5 5.5c-3.245 1.51-6.346 4.75-7.5 11"/><path id="XMLID_1311_" d="M4.053 6.5c2.841 0 6.447 2.057 6.447 4.606 0 .572-.215 1.138-.735 1.659-.52.52-1.087.735-1.659.735C5.557 13.5 3.5 9.894 3.5 7.053c0-.306.247-.553.553-.553z"/><path id="XMLID_1310_" d="M6.5 9.5c2.444 1.6 4.087 4.263 5.5 7"/><path d="M23.5 21.5a2.994 2.994 0 0 0-2.505-2.95A3.486 3.486 0 0 0 18.5 17.5c-.088 0-.17.02-.257.026A2.98 2.98 0 0 0 16 16.5c-.28 0-.544.05-.8.122A3.982 3.982 0 0 0 12 15a3.98 3.98 0 0 0-3.186 1.605A3.48 3.48 0 0 0 8 16.5a3.492 3.492 0 0 0-3.267 2.271A2.978 2.978 0 0 0 3.5 18.5a3 3 0 0 0-3 3h23z"/></g><metadata><rdf:RDF xmlns:rdf="http://www.w3.org/1999/02/22-rdf-syntax-ns#" xmlns:rdfs="http://www.w3.org/2000/01/rdf-schema#" xmlns:dc="http://purl.org/dc/elements/1.1/"><rdf:Description about="https://iconscout.com/legal#licenses" dc:title="plant,eco,ecology,friendly,nature,natural,gardening,bio,green" dc:description="plant,eco,ecology,friendly,nature,natural,gardening,bio,green" dc:publisher="Iconscout" dc:date="2017-08-16" dc:format="image/svg+xml" dc:language="en"><dc:creator><rdf:Bag><rdf:li>Those Icons</rdf:li></rdf:Bag></dc:creator></rdf:Description></rdf:RDF></metadata></svg>